<svg xmlns="http://www.w3.org/2000/svg" version="1.1" xmlns:xlink="http://www.w3.org/1999/xlink" xmlns:svgjs="http://svgjs.dev/svgjs" viewBox="0 0 13.511222691532423 3.0676496678395218"><g transform="matrix(1,0,0,1,0.5066935536302264,0.554493583919761)"><g><path d=" M 0.8925278320312489 0.018000000000000016 L 0.8925278320312489 1.068 L 1.570527832031249 1.068 L 1.570527832031249 0.9855 L 1.029027832031249 0.9855 L 1.029027832031249 0.546 L 1.4940278320312488 0.546 L 1.4940278320312488 0.4770000000000001 L 1.029027832031249 0.4770000000000001 L 1.029027832031249 0.10050000000000003 L 1.570527832031249 0.10050000000000003 L 1.570527832031249 0.018000000000000016 L 0.8925278320312489 0.018000000000000016 M 1.8255124511718739 0.018000000000000016 L 1.6575124511718737 0.018000000000000016 L 2.0670124511718737 0.5445000000000001 L 1.6650124511718738 1.068 L 1.7460124511718738 1.068 L 2.104512451171874 0.5985 L 2.110512451171874 0.5985 L 2.4765124511718737 1.068 L 2.646012451171874 1.068 L 2.1915124511718735 0.48750000000000004 L 2.550012451171874 0.018000000000000016 L 2.470512451171874 0.018000000000000016 L 2.154012451171874 0.4305 L 2.1465124511718736 0.4305 L 1.8255124511718739 0.018000000000000016 M 3.4515036621093738 0.7590000000000001 L 3.5955036621093734 1.068 L 3.7410036621093736 1.068 L 3.2520036621093737 0.018000000000000016 L 3.1770036621093736 0.018000000000000016 L 2.7330036621093736 1.068 L 2.8020036621093736 1.068 L 2.9340036621093737 0.7590000000000001 L 3.4515036621093738 0.7590000000000001 M 3.420003662109374 0.6915 L 2.962503662109374 0.6915 L 3.1785036621093736 0.18600000000000005 L 3.184503662109374 0.18600000000000005 L 3.420003662109374 0.6915 M 4.064995605468749 0.018000000000000016 L 3.9629956054687487 0.018000000000000016 L 3.9629956054687487 1.068 L 4.028995605468749 1.068 L 4.028995605468749 0.21150000000000002 L 4.034995605468748 0.21150000000000002 L 4.498495605468749 1.086 L 4.525495605468748 1.086 L 4.9994956054687485 0.21750000000000003 L 5.005495605468749 0.21750000000000003 L 5.005495605468749 1.068 L 5.141995605468749 1.068 L 5.141995605468749 0.018000000000000016 L 5.038495605468748 0.018000000000000016 L 4.552495605468748 0.9195000000000001 L 4.546495605468749 0.9195000000000001 L 4.064995605468749 0.018000000000000016 M 5.558997070312499 0.018000000000000016 L 5.558997070312499 1.068 L 5.6954970703124985 1.068 L 5.6954970703124985 0.018000000000000016 L 5.558997070312499 0.018000000000000016 M 6.958513183593748 0.018000000000000016 L 6.958513183593748 0.8205 L 6.952513183593748 0.8205 L 6.120013183593748 0 L 6.112513183593748 0 L 6.112513183593748 1.068 L 6.181513183593748 1.068 L 6.181513183593748 0.26550000000000007 L 6.187513183593748 0.26550000000000007 L 7.020013183593749 1.086 L 7.027513183593748 1.086 L 7.027513183593748 0.018000000000000016 L 6.958513183593748 0.018000000000000016 M 7.967976562499999 0.7590000000000001 L 8.111976562499999 1.068 L 8.257476562499999 1.068 L 7.768476562499998 0.018000000000000016 L 7.693476562499998 0.018000000000000016 L 7.249476562499998 1.068 L 7.318476562499998 1.068 L 7.450476562499999 0.7590000000000001 L 7.967976562499999 0.7590000000000001 M 7.936476562499998 0.6915 L 7.478976562499998 0.6915 L 7.694976562499998 0.18600000000000005 L 7.700976562499998 0.18600000000000005 L 7.936476562499998 0.6915 M 8.687975830078123 1.068 L 8.687975830078123 0.10050000000000003 L 9.089975830078123 0.10050000000000003 L 9.089975830078123 0.018000000000000016 L 8.149475830078122 0.018000000000000016 L 8.149475830078122 0.10050000000000003 L 8.551475830078124 0.10050000000000003 L 8.551475830078124 1.068 L 8.687975830078123 1.068 M 9.086953124999997 0.543 Q 9.086953124999997 0.627 9.119203124999999 0.7222500000000001 Q 9.151453124999998 0.8175000000000001 9.220453124999999 0.8985000000000001 Q 9.289453124999998 0.9795 9.395953124999998 1.03275 Q 9.502453124999999 1.086 9.650953124999997 1.086 Q 9.751453124999998 1.086 9.833203124999997 1.06125 Q 9.914953124999998 1.0365 9.980203124999997 0.9945 Q 10.045453124999998 0.9525 10.093453124999998 0.89775 Q 10.141453124999998 0.8430000000000001 10.172203124999998 0.7822500000000001 Q 10.202953124999999 0.7215 10.218703124999998 0.66 Q 10.234453124999998 0.5985 10.234453124999998 0.543 Q 10.234453124999998 0.4590000000000001 10.199953124999999 0.36375 Q 10.165453124999997 0.26850000000000007 10.093453124999998 0.1875 Q 10.021453124999997 0.10650000000000004 9.911203124999998 0.05325000000000002 Q 9.800953124999998 0 9.650953124999997 0 Q 9.502453124999999 0 9.395953124999998 0.05249999999999999 Q 9.289453124999998 0.1050000000000001 9.220453124999999 0.18525000000000003 Q 9.151453124999998 0.26550000000000007 9.119203124999999 0.36150000000000004 Q 9.086953124999997 0.4575 9.086953124999997 0.543 M 9.233953124999998 0.543 Q 9.233953124999998 0.43800000000000006 9.266203124999999 0.35025000000000006 Q 9.298453124999998 0.26250000000000007 9.354703124999999 0.1995 Q 9.410953124999999 0.13650000000000007 9.487453124999998 0.10125000000000006 Q 9.563953124999998 0.06600000000000006 9.653953124999997 0.06600000000000006 Q 9.742453124999997 0.06600000000000006 9.821203124999998 0.10125000000000006 Q 9.899953124999998 0.13650000000000007 9.959203124999998 0.1995 Q 10.018453124999997 0.26250000000000007 10.052953124999998 0.35025000000000006 Q 10.087453124999998 0.43800000000000006 10.087453124999998 0.543 Q 10.087453124999998 0.6480000000000001 10.052953124999998 0.7357500000000001 Q 10.018453124999997 0.8235000000000001 9.959203124999998 0.8865000000000001 Q 9.899953124999998 0.9495 9.821203124999998 0.98475 Q 9.742453124999997 1.02 9.653953124999997 1.02 Q 9.563953124999998 1.02 9.487453124999998 0.98475 Q 9.410953124999999 0.9495 9.354703124999999 0.8865000000000001 Q 9.298453124999998 0.8235000000000001 9.266203124999999 0.7357500000000001 Q 9.233953124999998 0.6480000000000001 9.233953124999998 0.543" fill="#202020" fill-rule="nonzero"></path></g><g><path d=" M 0.47250000000000003 1.5874124999999997 Q 0.45 1.5356624999999997 0.403875 1.5060374999999997 Q 0.35775 1.4764124999999997 0.2955 1.4764124999999997 Q 0.23700000000000002 1.4764124999999997 0.1905 1.5034124999999998 Q 0.14400000000000002 1.5304124999999997 0.117 1.5802874999999998 Q 0.09 1.6301624999999997 0.09 1.6961624999999998 Q 0.09 1.7621624999999996 0.117 1.8124124999999998 Q 0.14400000000000002 1.8626624999999997 0.1905 1.8896624999999998 Q 0.23700000000000002 1.9166624999999997 0.2955 1.9166624999999997 Q 0.35025 1.9166624999999997 0.394125 1.8930374999999997 Q 0.438 1.8694124999999997 0.464625 1.8255374999999998 Q 0.49125 1.7816624999999997 0.495 1.7231624999999997 L 0.2745 1.7231624999999997 L 0.2745 1.6804124999999996 L 0.5505 1.6804124999999996 L 0.5505 1.7186624999999998 Q 0.54675 1.7876624999999997 0.513 1.8435374999999998 Q 0.47925 1.8994124999999997 0.42262500000000003 1.9316624999999998 Q 0.366 1.9639124999999997 0.2955 1.9639124999999997 Q 0.22275 1.9639124999999997 0.1635 1.9297874999999998 Q 0.10425 1.8956624999999998 0.070125 1.8345374999999997 Q 0.036000000000000004 1.7734124999999998 0.036000000000000004 1.6961624999999998 Q 0.036000000000000004 1.6189124999999998 0.070125 1.5577874999999999 Q 0.10425 1.4966624999999998 0.1635 1.4625374999999998 Q 0.22275 1.4284124999999999 0.2955 1.4284124999999999 Q 0.3795 1.4284124999999999 0.4425 1.4704124999999997 Q 0.5055000000000001 1.5124124999999997 0.534 1.5874124999999997 L 0.47250000000000003 1.5874124999999997 M 0.9521118164062499 1.8341624999999997 L 0.7136118164062498 1.8341624999999997 L 0.6678618164062499 1.9586624999999998 L 0.6123618164062499 1.9586624999999998 L 0.8036118164062498 1.4411625 L 0.8628618164062498 1.4411625 L 1.05336181640625 1.9586624999999998 L 0.9978618164062498 1.9586624999999998 L 0.9521118164062499 1.8341624999999997 M 0.9363618164062499 1.7906624999999998 L 0.8328618164062498 1.5071624999999997 L 0.7293618164062499 1.7906624999999998 L 0.9363618164062499 1.7906624999999998 M 1.1917199707031247 1.4344124999999996 L 1.1917199707031247 1.9586624999999998 L 1.1392199707031248 1.9586624999999998 L 1.1392199707031248 1.4344124999999996 L 1.1917199707031247 1.4344124999999996 M 1.7080979003906247 1.9586624999999998 L 1.6555979003906247 1.9586624999999998 L 1.3653479003906248 1.5176624999999997 L 1.3653479003906248 1.9586624999999998 L 1.3128479003906248 1.9586624999999998 L 1.3128479003906248 1.4344124999999996 L 1.3653479003906248 1.4344124999999996 L 1.6555979003906247 1.8746624999999997 L 1.6555979003906247 1.4344124999999996 L 1.7080979003906247 1.4344124999999996 L 1.7080979003906247 1.9586624999999998 M 2.316318603515625 1.9586624999999998 L 2.0890686035156247 1.7164124999999997 L 2.0890686035156247 1.9586624999999998 L 2.036568603515625 1.9586624999999998 L 2.036568603515625 1.4344124999999996 L 2.0890686035156247 1.4344124999999996 L 2.0890686035156247 1.6796624999999996 L 2.316318603515625 1.4344124999999996 L 2.3830686035156248 1.4344124999999996 L 2.137818603515625 1.6961624999999998 L 2.385318603515625 1.9586624999999998 L 2.316318603515625 1.9586624999999998 M 2.8596884765625 1.9586624999999998 L 2.8071884765625 1.9586624999999998 L 2.5169384765625 1.5176624999999997 L 2.5169384765625 1.9586624999999998 L 2.4644384765625 1.9586624999999998 L 2.4644384765625 1.4344124999999996 L 2.5169384765625 1.4344124999999996 L 2.8071884765625 1.8746624999999997 L 2.8071884765625 1.4344124999999996 L 2.8596884765625 1.4344124999999996 L 2.8596884765625 1.9586624999999998 M 3.0842940673828125 1.9297874999999998 Q 3.0250440673828125 1.8956624999999998 2.9909190673828125 1.8345374999999997 Q 2.9567940673828126 1.7734124999999998 2.9567940673828126 1.6961624999999998 Q 2.9567940673828126 1.6189124999999998 2.9909190673828125 1.5577874999999999 Q 3.0250440673828125 1.4966624999999998 3.0842940673828125 1.4625374999999998 Q 3.1435440673828126 1.4284124999999999 3.2162940673828126 1.4284124999999999 Q 3.2897940673828128 1.4284124999999999 3.3490440673828124 1.4625374999999998 Q 3.4082940673828124 1.4966624999999998 3.4420440673828123 1.5577874999999999 Q 3.4757940673828127 1.6189124999999998 3.4757940673828127 1.6961624999999998 Q 3.4757940673828127 1.7734124999999998 3.4420440673828123 1.8345374999999997 Q 3.4082940673828124 1.8956624999999998 3.3490440673828124 1.9297874999999998 Q 3.2897940673828128 1.9639124999999997 3.2162940673828126 1.9639124999999997 Q 3.1435440673828126 1.9639124999999997 3.0842940673828125 1.9297874999999998 M 3.3212940673828126 1.8911624999999996 Q 3.3677940673828126 1.8641624999999997 3.3947940673828128 1.8135374999999998 Q 3.4217940673828124 1.7629124999999997 3.4217940673828124 1.6961624999999998 Q 3.4217940673828124 1.6294124999999997 3.3947940673828128 1.5791624999999998 Q 3.3677940673828126 1.5289124999999997 3.3212940673828126 1.5019124999999998 Q 3.2747940673828126 1.4749124999999998 3.2162940673828126 1.4749124999999998 Q 3.1577940673828127 1.4749124999999998 3.1112940673828127 1.5019124999999998 Q 3.0647940673828127 1.5289124999999997 3.0377940673828125 1.5791624999999998 Q 3.0107940673828124 1.6294124999999997 3.0107940673828124 1.6961624999999998 Q 3.0107940673828124 1.7629124999999997 3.0377940673828125 1.8135374999999998 Q 3.0647940673828127 1.8641624999999997 3.1112940673828127 1.8911624999999996 Q 3.1577940673828127 1.9181624999999998 3.2162940673828126 1.9181624999999998 Q 3.2747940673828126 1.9181624999999998 3.3212940673828126 1.8911624999999996 M 4.209687744140625 1.4344124999999996 L 4.061187744140625 1.9586624999999998 L 4.0026877441406254 1.9586624999999998 L 3.870687744140625 1.5116624999999997 L 3.735687744140625 1.9586624999999998 L 3.678687744140625 1.9594124999999998 L 3.533187744140625 1.4344124999999996 L 3.5894377441406253 1.4344124999999996 L 3.709437744140625 1.8941624999999997 L 3.843687744140625 1.4344124999999996 L 3.902187744140625 1.4344124999999996 L 4.032687744140625 1.8941624999999997 L 4.153437744140625 1.4344124999999996 L 4.209687744140625 1.4344124999999996 M 4.344325561523437 1.9159124999999997 L 4.532575561523437 1.9159124999999997 L 4.532575561523437 1.9586624999999998 L 4.291825561523437 1.9586624999999998 L 4.291825561523437 1.4344124999999996 L 4.344325561523437 1.4344124999999996 L 4.344325561523437 1.9159124999999997 M 4.661965942382812 1.4771624999999997 L 4.661965942382812 1.6729124999999998 L 4.860715942382813 1.6729124999999998 L 4.860715942382813 1.7164124999999997 L 4.661965942382812 1.7164124999999997 L 4.661965942382812 1.9151624999999997 L 4.8832159423828125 1.9151624999999997 L 4.8832159423828125 1.9586624999999998 L 4.609465942382812 1.9586624999999998 L 4.609465942382812 1.4336624999999996 L 4.8832159423828125 1.4336624999999996 L 4.8832159423828125 1.4771624999999997 L 4.661965942382812 1.4771624999999997 M 5.2930839843749995 1.4659124999999997 Q 5.355333984375 1.4974124999999998 5.3883339843749996 1.5566624999999998 Q 5.421333984375 1.6159124999999999 5.421333984375 1.6976624999999999 Q 5.421333984375 1.7786624999999998 5.3883339843749996 1.8375374999999998 Q 5.355333984375 1.8964124999999998 5.2930839843749995 1.9275374999999997 Q 5.230833984375 1.9586624999999998 5.143833984375 1.9586624999999998 L 4.9885839843749995 1.9586624999999998 L 4.9885839843749995 1.4344124999999996 L 5.143833984375 1.4344124999999996 Q 5.230833984375 1.4344124999999996 5.2930839843749995 1.4659124999999997 M 5.310708984375 1.8577874999999997 Q 5.368083984375 1.8004124999999997 5.368083984375 1.6976624999999999 Q 5.368083984375 1.5941624999999997 5.310708984375 1.5360374999999997 Q 5.253333984375 1.4779124999999997 5.143833984375 1.4779124999999997 L 5.041083984375 1.4779124999999997 L 5.041083984375 1.9151624999999997 L 5.143833984375 1.9151624999999997 Q 5.253333984375 1.9151624999999997 5.310708984375 1.8577874999999997 M 5.932454223632813 1.5874124999999997 Q 5.909954223632813 1.5356624999999997 5.863829223632813 1.5060374999999997 Q 5.817704223632813 1.4764124999999997 5.755454223632812 1.4764124999999997 Q 5.696954223632813 1.4764124999999997 5.650454223632813 1.5034124999999998 Q 5.603954223632813 1.5304124999999997 5.5769542236328125 1.5802874999999998 Q 5.549954223632812 1.6301624999999997 5.549954223632812 1.6961624999999998 Q 5.549954223632812 1.7621624999999996 5.5769542236328125 1.8124124999999998 Q 5.603954223632813 1.8626624999999997 5.650454223632813 1.8896624999999998 Q 5.696954223632813 1.9166624999999997 5.755454223632812 1.9166624999999997 Q 5.810204223632812 1.9166624999999997 5.854079223632812 1.8930374999999997 Q 5.897954223632812 1.8694124999999997 5.924579223632812 1.8255374999999998 Q 5.951204223632812 1.7816624999999997 5.954954223632813 1.7231624999999997 L 5.734454223632812 1.7231624999999997 L 5.734454223632812 1.6804124999999996 L 6.010454223632813 1.6804124999999996 L 6.010454223632813 1.7186624999999998 Q 6.006704223632813 1.7876624999999997 5.972954223632812 1.8435374999999998 Q 5.939204223632813 1.8994124999999997 5.8825792236328125 1.9316624999999998 Q 5.825954223632812 1.9639124999999997 5.755454223632812 1.9639124999999997 Q 5.682704223632813 1.9639124999999997 5.623454223632812 1.9297874999999998 Q 5.564204223632813 1.8956624999999998 5.5300792236328125 1.8345374999999997 Q 5.495954223632812 1.7734124999999998 5.495954223632812 1.6961624999999998 Q 5.495954223632812 1.6189124999999998 5.5300792236328125 1.5577874999999999 Q 5.564204223632813 1.4966624999999998 5.623454223632812 1.4625374999999998 Q 5.682704223632813 1.4284124999999999 5.755454223632812 1.4284124999999999 Q 5.839454223632813 1.4284124999999999 5.902454223632812 1.4704124999999997 Q 5.965454223632813 1.5124124999999997 5.993954223632812 1.5874124999999997 L 5.932454223632813 1.5874124999999997 M 6.160816040039062 1.4771624999999997 L 6.160816040039062 1.6729124999999998 L 6.359566040039063 1.6729124999999998 L 6.359566040039063 1.7164124999999997 L 6.160816040039062 1.7164124999999997 L 6.160816040039062 1.9151624999999997 L 6.382066040039063 1.9151624999999997 L 6.382066040039063 1.9586624999999998 L 6.108316040039062 1.9586624999999998 L 6.108316040039062 1.4336624999999996 L 6.382066040039063 1.4336624999999996 L 6.382066040039063 1.4771624999999997 L 6.160816040039062 1.4771624999999997 M 7.001549194335937 1.4344124999999996 L 7.001549194335937 1.4779124999999997 L 6.856049194335938 1.4779124999999997 L 6.856049194335938 1.9586624999999998 L 6.803549194335938 1.9586624999999998 L 6.803549194335938 1.4779124999999997 L 6.657299194335938 1.4779124999999997 L 6.657299194335938 1.4344124999999996 L 7.001549194335937 1.4344124999999996 M 7.190188842773438 1.9297874999999998 Q 7.130938842773438 1.8956624999999998 7.096813842773438 1.8345374999999997 Q 7.062688842773437 1.7734124999999998 7.062688842773437 1.6961624999999998 Q 7.062688842773437 1.6189124999999998 7.096813842773438 1.5577874999999999 Q 7.130938842773438 1.4966624999999998 7.190188842773438 1.4625374999999998 Q 7.249438842773438 1.4284124999999999 7.322188842773437 1.4284124999999999 Q 7.3956888427734375 1.4284124999999999 7.454938842773438 1.4625374999999998 Q 7.514188842773438 1.4966624999999998 7.547938842773438 1.5577874999999999 Q 7.5816888427734375 1.6189124999999998 7.5816888427734375 1.6961624999999998 Q 7.5816888427734375 1.7734124999999998 7.547938842773438 1.8345374999999997 Q 7.514188842773438 1.8956624999999998 7.454938842773438 1.9297874999999998 Q 7.3956888427734375 1.9639124999999997 7.322188842773437 1.9639124999999997 Q 7.249438842773438 1.9639124999999997 7.190188842773438 1.9297874999999998 M 7.427188842773438 1.8911624999999996 Q 7.473688842773438 1.8641624999999997 7.500688842773438 1.8135374999999998 Q 7.527688842773438 1.7629124999999997 7.527688842773438 1.6961624999999998 Q 7.527688842773438 1.6294124999999997 7.500688842773438 1.5791624999999998 Q 7.473688842773438 1.5289124999999997 7.427188842773438 1.5019124999999998 Q 7.380688842773438 1.4749124999999998 7.322188842773437 1.4749124999999998 Q 7.263688842773438 1.4749124999999998 7.217188842773438 1.5019124999999998 Q 7.170688842773438 1.5289124999999997 7.143688842773438 1.5791624999999998 Q 7.116688842773438 1.6294124999999997 7.116688842773438 1.6961624999999998 Q 7.116688842773438 1.7629124999999997 7.143688842773438 1.8135374999999998 Q 7.170688842773438 1.8641624999999997 7.217188842773438 1.8911624999999996 Q 7.263688842773438 1.9181624999999998 7.322188842773437 1.9181624999999998 Q 7.380688842773438 1.9181624999999998 7.427188842773438 1.8911624999999996 M 8.09208251953125 1.5874124999999997 Q 8.06958251953125 1.5356624999999997 8.02345751953125 1.5060374999999997 Q 7.9773325195312506 1.4764124999999997 7.91508251953125 1.4764124999999997 Q 7.85658251953125 1.4764124999999997 7.81008251953125 1.5034124999999998 Q 7.7635825195312504 1.5304124999999997 7.73658251953125 1.5802874999999998 Q 7.70958251953125 1.6301624999999997 7.70958251953125 1.6961624999999998 Q 7.70958251953125 1.7621624999999996 7.73658251953125 1.8124124999999998 Q 7.7635825195312504 1.8626624999999997 7.81008251953125 1.8896624999999998 Q 7.85658251953125 1.9166624999999997 7.91508251953125 1.9166624999999997 Q 7.96983251953125 1.9166624999999997 8.01370751953125 1.8930374999999997 Q 8.05758251953125 1.8694124999999997 8.084207519531251 1.8255374999999998 Q 8.11083251953125 1.7816624999999997 8.11458251953125 1.7231624999999997 L 7.89408251953125 1.7231624999999997 L 7.89408251953125 1.6804124999999996 L 8.17008251953125 1.6804124999999996 L 8.17008251953125 1.7186624999999998 Q 8.16633251953125 1.7876624999999997 8.132582519531251 1.8435374999999998 Q 8.09883251953125 1.8994124999999997 8.04220751953125 1.9316624999999998 Q 7.98558251953125 1.9639124999999997 7.91508251953125 1.9639124999999997 Q 7.842332519531251 1.9639124999999997 7.78308251953125 1.9297874999999998 Q 7.723832519531251 1.8956624999999998 7.68970751953125 1.8345374999999997 Q 7.65558251953125 1.7734124999999998 7.65558251953125 1.6961624999999998 Q 7.65558251953125 1.6189124999999998 7.68970751953125 1.5577874999999999 Q 7.723832519531251 1.4966624999999998 7.78308251953125 1.4625374999999998 Q 7.842332519531251 1.4284124999999999 7.91508251953125 1.4284124999999999 Q 7.9990825195312505 1.4284124999999999 8.06208251953125 1.4704124999999997 Q 8.12508251953125 1.5124124999999997 8.15358251953125 1.5874124999999997 L 8.09208251953125 1.5874124999999997 M 8.3204443359375 1.4771624999999997 L 8.3204443359375 1.6729124999999998 L 8.519194335937499 1.6729124999999998 L 8.519194335937499 1.7164124999999997 L 8.3204443359375 1.7164124999999997 L 8.3204443359375 1.9151624999999997 L 8.5416943359375 1.9151624999999997 L 8.5416943359375 1.9586624999999998 L 8.2679443359375 1.9586624999999998 L 8.2679443359375 1.4336624999999996 L 8.5416943359375 1.4336624999999996 L 8.5416943359375 1.4771624999999997 L 8.3204443359375 1.4771624999999997 M 8.953812377929687 1.4344124999999996 L 8.953812377929687 1.4779124999999997 L 8.808312377929687 1.4779124999999997 L 8.808312377929687 1.9586624999999998 L 8.755812377929686 1.9586624999999998 L 8.755812377929686 1.4779124999999997 L 8.609562377929688 1.4779124999999997 L 8.609562377929688 1.4344124999999996 L 8.953812377929687 1.4344124999999996 M 9.428202026367186 1.4344124999999996 L 9.428202026367186 1.9586624999999998 L 9.375702026367188 1.9586624999999998 L 9.375702026367188 1.7134124999999998 L 9.091452026367188 1.7134124999999998 L 9.091452026367188 1.9586624999999998 L 9.038952026367188 1.9586624999999998 L 9.038952026367188 1.4344124999999996 L 9.091452026367188 1.4344124999999996 L 9.091452026367188 1.6699124999999997 L 9.375702026367188 1.6699124999999997 L 9.375702026367188 1.4344124999999996 L 9.428202026367186 1.4344124999999996 M 9.602589111328125 1.4771624999999997 L 9.602589111328125 1.6729124999999998 L 9.801339111328124 1.6729124999999998 L 9.801339111328124 1.7164124999999997 L 9.602589111328125 1.7164124999999997 L 9.602589111328125 1.9151624999999997 L 9.823839111328125 1.9151624999999997 L 9.823839111328125 1.9586624999999998 L 9.550089111328125 1.9586624999999998 L 9.550089111328125 1.4336624999999996 L 9.823839111328125 1.4336624999999996 L 9.823839111328125 1.4771624999999997 L 9.602589111328125 1.4771624999999997 M 10.208207153320313 1.9586624999999998 L 10.078457153320313 1.7396624999999997 L 9.981707153320313 1.7396624999999997 L 9.981707153320313 1.9586624999999998 L 9.929207153320313 1.9586624999999998 L 9.929207153320313 1.4344124999999996 L 10.086707153320312 1.4344124999999996 Q 10.174457153320311 1.4344124999999996 10.219832153320313 1.4764124999999997 Q 10.265207153320313 1.5184124999999997 10.265207153320313 1.5866624999999996 Q 10.265207153320313 1.6436624999999998 10.232582153320312 1.6837874999999998 Q 10.199957153320312 1.7239124999999997 10.136207153320312 1.7359124999999997 L 10.271207153320312 1.9586624999999998 L 10.208207153320313 1.9586624999999998 M 9.981707153320313 1.6969124999999998 L 10.087457153320312 1.6969124999999998 Q 10.148957153320312 1.6969124999999998 10.180082153320312 1.6669124999999998 Q 10.211207153320313 1.6369124999999998 10.211207153320313 1.5866624999999996 Q 10.211207153320313 1.5349124999999997 10.181207153320312 1.5067874999999997 Q 10.151207153320312 1.4786624999999998 10.086707153320312 1.4786624999999998 L 9.981707153320313 1.4786624999999998 L 9.981707153320313 1.6969124999999998" fill="#1192dc" fill-rule="nonzero"></path></g><g clip-path="url(#SvgjsClipPath1002)"><g clip-path="url(#b25647e8f-edfa-4d3f-b700-50be1662b0df06d6c247-f8f6-4d92-88bf-a1ec61aa15ad)"><path d=" M 12.191742206490774 1.089035108571259 C 12.191742206490774 1.4138379826018612 11.928424856595626 1.6771453005955363 11.603621982565024 1.6771453005955363 C 11.278839172337369 1.6771453005955363 11.015531854343696 1.4138379826018612 11.015531854343696 1.089035108571259 C 11.015531854343696 0.7642322345406567 11.278839172337369 0.5009148846455075 11.603621982565024 0.5009148846455075 C 11.928424856595626 0.5009148846455075 12.191742206490774 0.7642322345406567 12.191742206490774 1.089035108571259" fill="#facf0e" transform="matrix(1,0,0,1,0,0)" fill-rule="nonzero"></path></g><g clip-path="url(#b25647e8f-edfa-4d3f-b700-50be1662b0df06d6c247-f8f6-4d92-88bf-a1ec61aa15ad)"><path d=" M 12.376901012000328 1.089035108571259 C 12.376901012000328 1.5154109850282707 12.030007890923509 1.8623041061050905 11.603632014466498 1.8623041061050905 C 11.177256138009486 1.8623041061050905 10.83037304883414 1.5154109850282707 10.83037304883414 1.089035108571259 C 10.83037304883414 0.6626492002127734 11.177256138009486 0.31576611103742774 11.603632014466498 0.31576611103742774 C 12.030007890923509 0.31576611103742774 12.376901012000328 0.6626492002127734 12.376901012000328 1.089035108571259 Z" fill="none" transform="matrix(1,0,0,1,0,0)" fill-rule="nonzero" stroke-dasharray="none" stroke-miterlimit="4" stroke-linejoin="miter" stroke-linecap="butt" stroke-width="0.009359764075440959" stroke="#facf0e"></path></g><g clip-path="url(#b25647e8f-edfa-4d3f-b700-50be1662b0df06d6c247-f8f6-4d92-88bf-a1ec61aa15ad)"><path d=" M 12.330232606342289 1.089035108571259 C 12.330232606342289 1.4896791577469135 12.004276063642152 1.81563570044705 11.603632014466498 1.81563570044705 C 11.202987965290843 1.81563570044705 10.877041454492181 1.4896791577469135 10.877041454492181 1.089035108571259 C 10.877041454492181 0.6883810274941304 11.202987965290843 0.3624345166954678 11.603632014466498 0.3624345166954678 C 12.004276063642152 0.3624345166954678 12.330232606342289 0.6883810274941304 12.330232606342289 1.089035108571259 Z" fill="none" transform="matrix(1,0,0,1,0,0)" fill-rule="nonzero" stroke-dasharray="none" stroke-miterlimit="4" stroke-linejoin="miter" stroke-linecap="butt" stroke-width="0.009359764075440959" stroke="#facf0e"></path></g><g clip-path="url(#b25647e8f-edfa-4d3f-b700-50be1662b0df06d6c247-f8f6-4d92-88bf-a1ec61aa15ad)"><path d=" M 12.262697845617886 1.0890250766697847 C 12.262697845617886 1.4530025259571895 11.967619495655377 1.748080875919698 11.603621982565024 1.748080875919698 C 11.23964453327762 1.748080875919698 10.94456618331511 1.4530025259571895 10.94456618331511 1.0890250766697847 C 10.94456618331511 0.7250476273823798 11.239644533277618 0.42996927741987134 11.603621982565024 0.42996927741987134 C 11.967619495655377 0.42996927741987134 12.262697845617886 0.7250476273823798 12.262697845617886 1.0890250766697847 Z" fill="none" transform="matrix(1,0,0,1,0,0)" fill-rule="nonzero" stroke-dasharray="none" stroke-miterlimit="4" stroke-linejoin="miter" stroke-linecap="butt" stroke-width="0.018679400544985063" stroke="#facf0e"></path></g><g clip-path="url(#b25647e8f-edfa-4d3f-b700-50be1662b0df06d6c247-f8f6-4d92-88bf-a1ec61aa15ad)"><path d=" M 12.246937728401896 0.4345839520980094 L 12.016966419007032 0.6678758208808385 M 11.278939491352112 1.4028028909802264 L 10.946291670368675 1.734437489914768" fill="none" transform="matrix(1,0,0,1,0,0)" fill-rule="nonzero" stroke-dasharray="none" stroke-miterlimit="4" stroke-linejoin="miter" stroke-linecap="butt" stroke-width="0.018679400544985063" stroke="#1192dc"></path></g><g clip-path="url(#b25647e8f-edfa-4d3f-b700-50be1662b0df06d6c247-f8f6-4d92-88bf-a1ec61aa15ad)"><path d=" M 11.178279391959856 0.6712666035791225 L 10.946452180792262 0.4345839520980094 M 11.922195045780139 1.4069560981905505 L 12.246777217978309 1.734437489914768" fill="none" transform="matrix(1,0,0,1,0,0)" fill-rule="nonzero" stroke-dasharray="none" stroke-miterlimit="4" stroke-linejoin="miter" stroke-linecap="butt" stroke-width="0.018679400544985063" stroke="#1192dc"></path></g><g clip-path="url(#b25647e8f-edfa-4d3f-b700-50be1662b0df06d6c247-f8f6-4d92-88bf-a1ec61aa15ad)"><path d=" M 11.603632014466498 0.203248304102652 C 11.670374254974439 0.203248304102652 11.724486331526345 0.14913622755074576 11.724486331526345 0.08239398704280501 C 11.724486331526345 0.015651746534864314 11.670374254974439 -0.03846033001704195 11.603632014466498 -0.03846033001704195 C 11.536889773958556 -0.03846033001704195 11.48277769740665 0.015651746534864272 11.48277769740665 0.08239398704280501 C 11.48277769740665 0.14913622755074576 11.536889773958556 0.203248304102652 11.603632014466498 0.203248304102652 Z" fill="none" transform="matrix(1,0,0,1,0,0)" fill-rule="nonzero" stroke-dasharray="none" stroke-miterlimit="4" stroke-linejoin="miter" stroke-linecap="butt" stroke-width="0.018679400544985063" stroke="#facf0e"></path></g><g clip-path="url(#b25647e8f-edfa-4d3f-b700-50be1662b0df06d6c247-f8f6-4d92-88bf-a1ec61aa15ad)"><path d=" M 11.603632014466498 0.17076500712914938 C 11.635430096413103 0.1711037978106644 11.664958784357491 0.15433390861983703 11.680956429536124 0.12685103862146302 C 11.696954074714757 0.09936816862308898 11.696954074714757 0.06540977356104723 11.680956429536124 0.0379269035626731 C 11.664958784357493 0.010444033564298967 11.635430096413105 -0.006325855626528598 11.603632014466498 -0.005987064945013776 C 11.571833932519892 -0.006325855626528813 11.542305244575504 0.010444033564298572 11.52630759939687 0.0379269035626726 C 11.51030995421824 0.06540977356104662 11.51030995421824 0.0993681686230884 11.52630759939687 0.12685103862146252 C 11.542305244575504 0.15433390861983665 11.571833932519892 0.17110379781066423 11.603632014466497 0.17076500712914938 Z" fill="none" transform="matrix(1,0,0,1,0,0)" fill-rule="nonzero" stroke-dasharray="none" stroke-miterlimit="4" stroke-linejoin="miter" stroke-linecap="butt" stroke-width="0.018679400544985063" stroke="#facf0e"></path></g><g clip-path="url(#b25647e8f-edfa-4d3f-b700-50be1662b0df06d6c247-f8f6-4d92-88bf-a1ec61aa15ad)"><path d=" M 11.603632014466498 0.4282036627604096 L 11.603632014466498 0.20600707700806042" fill="none" transform="matrix(1,0,0,1,0,0)" fill-rule="nonzero" stroke-dasharray="none" stroke-miterlimit="4" stroke-linejoin="miter" stroke-linecap="butt" stroke-width="0.018679400544985063" stroke="#facf0e"></path></g><g clip-path="url(#b25647e8f-edfa-4d3f-b700-50be1662b0df06d6c247-f8f6-4d92-88bf-a1ec61aa15ad)"><path d=" M 11.596649811040445 2.0064625302895345 L 11.596649811040445 1.742954574266375" fill="none" transform="matrix(1,0,0,1,0,0)" fill-rule="nonzero" stroke-dasharray="none" stroke-miterlimit="4" stroke-linejoin="miter" stroke-linecap="butt" stroke-width="0.018679400544985063" stroke="#facf0e"></path></g><g clip-path="url(#b25647e8f-edfa-4d3f-b700-50be1662b0df06d6c247-f8f6-4d92-88bf-a1ec61aa15ad)"><path d=" M 11.603632014466498 0.06475790425113809 C 11.593891874893906 0.06475790425113809 11.58599593167483 0.07265384747021407 11.58599593167483 0.08239398704280498 C 11.58599593167483 0.09213412661539588 11.593891874893906 0.10003006983447185 11.603632014466498 0.10003006983447185 C 11.613372154039089 0.10003006983447185 11.621268097258165 0.09213412661539588 11.621268097258165 0.08239398704280498 C 11.621268097258165 0.07265384747021407 11.613372154039089 0.06475790425113809 11.603632014466498 0.06475790425113809" fill="#1192dc" transform="matrix(1,0,0,1,0,0)" fill-rule="nonzero"></path></g><g clip-path="url(#b25647e8f-edfa-4d3f-b700-50be1662b0df06d6c247-f8f6-4d92-88bf-a1ec61aa15ad)"><path d=" M 11.596649811040445 1.41283479245444 C 11.606389950613035 1.41283479245444 11.614285893832113 1.4049388492353638 11.614285893832113 1.3951987096627727 C 11.614285893832113 1.385458570090182 11.606389950613035 1.3775626268711059 11.596649811040445 1.3775626268711059 C 11.586909671467854 1.3775626268711059 11.579013728248778 1.385458570090182 11.579013728248778 1.3951987096627727 C 11.579013728248778 1.4049388492353638 11.586909671467854 1.41283479245444 11.596649811040445 1.41283479245444" fill="#1192dc" transform="matrix(1,0,0,1,0,0)" fill-rule="nonzero"></path></g><g clip-path="url(#b25647e8f-edfa-4d3f-b700-50be1662b0df06d6c247-f8f6-4d92-88bf-a1ec61aa15ad)"><path d=" M 11.44932130599015 1.3671796088452952 C 11.45906144556274 1.3671796088452952 11.466957388781816 1.359283665626219 11.466957388781816 1.3495435260536284 C 11.466957388781816 1.3398033864810373 11.45906144556274 1.3319074432619615 11.44932130599015 1.3319074432619615 C 11.43958116641756 1.3319074432619615 11.431685223198484 1.3398033864810373 11.431685223198484 1.3495435260536284 C 11.431685223198484 1.359283665626219 11.43958116641756 1.3671796088452952 11.44932130599015 1.3671796088452952" fill="#1192dc" transform="matrix(1,0,0,1,0,0)" fill-rule="nonzero"></path></g><g clip-path="url(#b25647e8f-edfa-4d3f-b700-50be1662b0df06d6c247-f8f6-4d92-88bf-a1ec61aa15ad)"><path d=" M 11.743978316090741 1.3671796088452952 C 11.753718455663332 1.3671796088452952 11.761614398882408 1.359283665626219 11.761614398882408 1.3495435260536284 C 11.761614398882408 1.3398033864810373 11.753718455663332 1.3319074432619615 11.743978316090741 1.3319074432619615 C 11.73423817651815 1.3319074432619615 11.726342233299075 1.3398033864810373 11.726342233299075 1.3495435260536284 C 11.726342233299075 1.359283665626219 11.73423817651815 1.3671796088452952 11.743978316090741 1.3671796088452952" fill="#1192dc" transform="matrix(1,0,0,1,0,0)" fill-rule="nonzero"></path></g><g clip-path="url(#b25647e8f-edfa-4d3f-b700-50be1662b0df06d6c247-f8f6-4d92-88bf-a1ec61aa15ad)"><path d=" M 11.603632014466498 0.756246840967183 C 11.593891874893906 0.756246840967183 11.58599593167483 0.7641427841862589 11.58599593167483 0.7738829237588498 C 11.58599593167483 0.7836230633314407 11.593891874893906 0.7915190065505168 11.603632014466498 0.7915190065505168 C 11.613372154039089 0.7915190065505168 11.621268097258165 0.7836230633314407 11.621268097258165 0.7738829237588498 C 11.621268097258165 0.7641427841862589 11.613372154039089 0.756246840967183 11.603632014466498 0.756246840967183" fill="#1192dc" transform="matrix(1,0,0,1,0,0)" fill-rule="nonzero"></path></g><g clip-path="url(#b25647e8f-edfa-4d3f-b700-50be1662b0df06d6c247-f8f6-4d92-88bf-a1ec61aa15ad)"><path d=" M 11.750960519516793 0.8018919926748531 C 11.741220379944203 0.8018919926748531 11.733324436725127 0.8097879358939292 11.733324436725127 0.81952807546652 C 11.733324436725127 0.829268215039111 11.741220379944203 0.8371641582581869 11.750960519516793 0.8371641582581869 C 11.760700659089384 0.8371641582581869 11.76859660230846 0.829268215039111 11.76859660230846 0.81952807546652 C 11.76859660230846 0.8097879358939292 11.760700659089384 0.8018919926748531 11.750960519516793 0.8018919926748531" fill="#1192dc" transform="matrix(1,0,0,1,0,0)" fill-rule="nonzero"></path></g><g clip-path="url(#b25647e8f-edfa-4d3f-b700-50be1662b0df06d6c247-f8f6-4d92-88bf-a1ec61aa15ad)"><path d=" M 11.456313541317677 0.8018919926748531 C 11.446573401745086 0.8018919926748531 11.43867745852601 0.8097879358939292 11.43867745852601 0.81952807546652 C 11.43867745852601 0.829268215039111 11.446573401745086 0.8371641582581869 11.456313541317677 0.8371641582581869 C 11.466053680890267 0.8371641582581869 11.473949624109343 0.829268215039111 11.473949624109343 0.81952807546652 C 11.473949624109343 0.8097879358939292 11.466053680890267 0.8018919926748531 11.456313541317677 0.8018919926748531" fill="#1192dc" transform="matrix(1,0,0,1,0,0)" fill-rule="nonzero"></path></g><g clip-path="url(#b25647e8f-edfa-4d3f-b700-50be1662b0df06d6c247-f8f6-4d92-88bf-a1ec61aa15ad)"><path d=" M 10.7094384765625 1.0815011505641245 L 10.943593088872111 1.0815011505641245" fill="none" transform="matrix(1,0,0,1,0,0)" fill-rule="nonzero" stroke-dasharray="none" stroke-miterlimit="4" stroke-linejoin="miter" stroke-linecap="butt" stroke-width="0.018679400544985063" stroke="#facf0e"></path></g><g clip-path="url(#b25647e8f-edfa-4d3f-b700-50be1662b0df06d6c247-f8f6-4d92-88bf-a1ec61aa15ad)"><path d=" M 12.266289266345654 1.0815011505641245 L 12.49783558427197 1.0815011505641245" fill="none" transform="matrix(1,0,0,1,0,0)" fill-rule="nonzero" stroke-dasharray="none" stroke-miterlimit="4" stroke-linejoin="miter" stroke-linecap="butt" stroke-width="0.018679400544985063" stroke="#facf0e"></path></g><g clip-path="url(#b25647e8f-edfa-4d3f-b700-50be1662b0df06d6c247-f8f6-4d92-88bf-a1ec61aa15ad)"><path d=" M 12.14825391360006 1.1576633465563515 L 11.648003114686944 1.164846188011888 C 11.648003114686944 1.164846188011888 11.635242536011743 1.2110230304976919 11.591563636993019 1.2110230304976919 C 11.547924865580192 1.2110230304976919 11.535094063594673 1.1699724896652115 11.535094063594673 1.1699724896652115 L 11.041213522117681 1.1576131870489808" fill="none" transform="matrix(1,0,0,1,0,0)" fill-rule="nonzero" stroke-dasharray="none" stroke-miterlimit="4" stroke-linejoin="miter" stroke-linecap="butt" stroke-width="0.02018418576611705" stroke="#202020"></path></g><g clip-path="url(#b25647e8f-edfa-4d3f-b700-50be1662b0df06d6c247-f8f6-4d92-88bf-a1ec61aa15ad)"><path d=" M 11.590269521702846 1.136425811135442 L 11.590309649308743 1.0160028658389861 C 11.590309649308743 1.0160028658389861 11.36662834213821 0.9117312819160138 11.149678440856874 0.903314516579149 C 11.142957066869151 0.9030536871408193 11.067266370246212 1.0345016921574355 11.067266370246212 1.0345016921574355 C 11.067266370246212 1.0345016921574355 11.460767705572227 1.0943821120570143 11.590269521702846 1.136425811135442 Z M 11.089125883558523 1.0429084255928265 L 11.067266370246212 1.0832767971250603 L 11.592366189110956 1.1398266257352003 L 11.057174277363155 1.125320496203488 M 11.592627018549285 1.1369474700121014 L 11.59199500875641 1.0160028658389861 C 11.59199500875641 1.0160028658389861 11.815676315926943 0.9117312819160138 12.032626217208279 0.903314516579149 C 12.039357623097477 0.9030536871408193 12.11503828781894 1.0345016921574355 12.11503828781894 1.0345016921574355 C 12.11503828781894 1.0345016921574355 11.722128834679905 1.0949037709336733 11.592627018549285 1.1369474700121014 Z M 12.09317877450663 1.0429084255928265 L 12.11503828781894 1.0832767971250603 L 11.590530351141176 1.1398266257352003 L 12.125130380702 1.125320496203488" fill="none" transform="matrix(1,0,0,1,0,0)" fill-rule="nonzero" stroke-dasharray="none" stroke-miterlimit="4" stroke-linejoin="miter" stroke-linecap="butt" stroke-width="0.015138139324587786" stroke="#202020"></path></g></g></g><defs><clipPath id="SvgjsClipPath1002"><path d=" M 10.7094384765625 -0.04780003028953461 h 1.7883971077094696 v 2.054262560579069 h -1.7883971077094696 Z"></path></clipPath><clipPath id="b25647e8f-edfa-4d3f-b700-50be1662b0df06d6c247-f8f6-4d92-88bf-a1ec61aa15ad"><path d=" M 10.597161435263105 -0.05783193176374773 L 12.61010259366989 -0.05783193176374773 L 12.61010259366989 2.0955157196761256 L 10.597161435263105 2.0955157196761256 Z"></path></clipPath></defs></svg>